<svg width="205" height="144" viewBox="0 0 205 144" fill="none" xmlns="http://www.w3.org/2000/svg">
<path d="M198.368 38.608V106H181.952V38.608H198.368Z" fill="white"/>
<path d="M150.32 106L136.304 80.56H132.368V106H115.952V38.608H143.504C148.816 38.608 153.328 39.536 157.04 41.392C160.816 43.248 163.632 45.808 165.488 49.072C167.344 52.272 168.272 55.856 168.272 59.824C168.272 64.304 166.992 68.304 164.432 71.824C161.936 75.344 158.224 77.84 153.296 79.312L168.848 106H150.32ZM132.368 68.944H142.544C145.552 68.944 147.792 68.208 149.264 66.736C150.8 65.264 151.568 63.184 151.568 60.496C151.568 57.936 150.8 55.92 149.264 54.448C147.792 52.976 145.552 52.24 142.544 52.24H132.368V68.944Z" fill="white"/>
<path d="M121.216 38.608L97.312 106H76.768L52.864 38.608H70.336L87.04 89.488L103.84 38.608H121.216Z" fill="white"/>
<path d="M22.368 51.76V65.392H44.352V78.064H22.368V92.848H47.232V106H5.952V38.608H47.232V51.76H22.368Z" fill="white"/>
<rect x="115" y="52" width="23.5" height="17" fill="black"/>
<path d="M116.5 52.5H139L138.5 50H114L115 56L116.5 52.5Z" fill="white"/>
<line x1="139" y1="52.7" x2="116.6" y2="52.7" stroke="black"/>
</svg>
