<svg width="240" height="200" viewBox="0 0 240 200" fill="none" xmlns="http://www.w3.org/2000/svg">
<rect width="240" height="200" fill="black"/>
<path d="M218.368 68.608V136H201.952V68.608H218.368Z" fill="white"/>
<path d="M176.32 136L162.304 110.56H158.368V136H141.952V68.608H169.504C174.816 68.608 179.328 69.536 183.04 71.392C186.816 73.248 189.632 75.808 191.488 79.072C193.344 82.272 194.272 85.856 194.272 89.824C194.272 94.304 192.992 98.304 190.432 101.824C187.936 105.344 184.224 107.84 179.296 109.312L194.848 136H176.32ZM158.368 98.944H168.544C171.552 98.944 173.792 98.208 175.264 96.736C176.8 95.264 177.568 93.184 177.568 90.496C177.568 87.936 176.8 85.92 175.264 84.448C173.792 82.976 171.552 82.24 168.544 82.24H158.368V98.944Z" fill="white"/>
<path d="M146.216 68.608L122.312 136H101.768L77.864 68.608H95.336L112.04 119.488L128.84 68.608H146.216Z" fill="white"/>
<path d="M46.368 81.76V95.392H68.352V108.064H46.368V122.848H71.232V136H29.952V68.608H71.232V81.76H46.368Z" fill="white"/>
<rect x="141" y="82" width="23.7" height="17" fill="black"/>
<path d="M141.5 82.5H171L170.4 80H141L140 86L141.5 82.5Z" fill="white"/>
<line x1="171" y1="82.7" x2="141.5" y2="82.7" stroke="black"/>
<path d="M141.5 82.3L142 81.5L140 83L140.5 83.5L141.5 82.3Z" stroke="white" stroke-width="0.3"/>
<rect x="143" y="68.6" width="13" height="12" fill="white"/>
<path d="M170 82.15L171 82.38L171.5 82L170 82.15Z" fill="white" stroke="white" stroke-width="0.1"/>
</svg>
