<svg width="283" height="180" viewBox="0 0 283 180" fill="none" xmlns="http://www.w3.org/2000/svg">
<rect width="283" height="180" fill="black"/>
<path d="M200.32 127L186.304 101.56H182.368V127H165.952V59.608H193.504C198.816 59.608 203.328 60.536 207.04 62.392C210.816 64.248 213.632 66.808 215.488 70.072C217.344 73.272 218.272 76.856 218.272 80.824C218.272 85.304 216.992 89.304 214.432 92.824C211.936 96.344 208.224 98.84 203.296 100.312L218.848 127H200.32ZM182.368 89.944H192.544C195.552 89.944 197.792 89.208 199.264 87.736C200.8 86.264 201.568 84.184 201.568 81.496C201.568 78.936 200.8 76.92 199.264 75.448C197.792 73.976 195.552 73.24 192.544 73.24H182.368V89.944Z" fill="white"/>
<path d="M159.216 59.608L135.312 127H114.768L90.864 59.608H108.336L125.04 110.488L141.84 59.608H159.216Z" fill="white"/>
<path d="M59.368 72.76V86.392H81.352V99.064H59.368V113.848H84.232V127H42.952V59.608H84.232V72.76H59.368Z" fill="white"/>
<line x1="244.507" y1="119.5" x2="209.507" y2="119.5" stroke="white" strokeWidth="15"/>
<line x1="237" y1="105.5" x2="237" y2="60.5" stroke="white" strokeWidth="15"/>
</svg>
